<svg width="24" height="24" viewBox="0 0 24 24" fill="none" xmlns="http://www.w3.org/2000/svg">
<path opacity="0.2" d="M20.25 10.8322V19.5004C20.25 19.6993 20.171 19.89 20.0303 20.0307C19.8897 20.1713 19.6989 20.2504 19.5 20.2504H15C14.8011 20.2504 14.6103 20.1713 14.4697 20.0307C14.329 19.89 14.25 19.6993 14.25 19.5004V15.0004C14.25 14.8014 14.171 14.6107 14.0303 14.47C13.8897 14.3294 13.6989 14.2504 13.5 14.2504H10.5C10.3011 14.2504 10.1103 14.3294 9.96967 14.47C9.82902 14.6107 9.75 14.8014 9.75 15.0004V19.5004C9.75 19.6993 9.67098 19.89 9.53033 20.0307C9.38968 20.1713 9.19891 20.2504 9 20.2504H4.5C4.30109 20.2504 4.11032 20.1713 3.96967 20.0307C3.82902 19.89 3.75 19.6993 3.75 19.5004V10.8322C3.75001 10.7277 3.77187 10.6243 3.81416 10.5288C3.85646 10.4332 3.91827 10.3475 3.99562 10.2772L11.4956 3.19535C11.6337 3.06966 11.8137 3 12.0005 3C12.1872 3 12.3672 3.06966 12.5053 3.19535L20.0053 10.2772C20.0825 10.3476 20.1441 10.4333 20.1863 10.5289C20.2284 10.6245 20.2501 10.7278 20.25 10.8322Z" fill="white"/>
<path d="M20.5153 9.7288L13.0153 2.65255C13.0116 2.64935 13.0082 2.6459 13.005 2.64223C12.7289 2.39111 12.369 2.25195 11.9958 2.25195C11.6225 2.25195 11.2627 2.39111 10.9866 2.64223L10.9763 2.65255L3.48469 9.7288C3.33187 9.86932 3.20989 10.04 3.12646 10.2301C3.04303 10.4202 2.99997 10.6256 3 10.8332V19.5004C3 19.8982 3.15804 20.2797 3.43934 20.561C3.72064 20.8423 4.10218 21.0004 4.5 21.0004H9C9.39782 21.0004 9.77936 20.8423 10.0607 20.561C10.342 20.2797 10.5 19.8982 10.5 19.5004V15.0004H13.5V19.5004C13.5 19.8982 13.658 20.2797 13.9393 20.561C14.2206 20.8423 14.6022 21.0004 15 21.0004H19.5C19.8978 21.0004 20.2794 20.8423 20.5607 20.561C20.842 20.2797 21 19.8982 21 19.5004V10.8332C21 10.6256 20.957 10.4202 20.8735 10.2301C20.7901 10.04 20.6681 9.86932 20.5153 9.7288ZM19.5 19.5004H15V15.0004C15 14.6025 14.842 14.221 14.5607 13.9397C14.2794 13.6584 13.8978 13.5004 13.5 13.5004H10.5C10.1022 13.5004 9.72064 13.6584 9.43934 13.9397C9.15804 14.221 9 14.6025 9 15.0004V19.5004H4.5V10.8332L4.51031 10.8238L12 3.75036L19.4906 10.8219L19.5009 10.8313L19.5 19.5004Z" fill="#21191B"/>
</svg>
