<svg width="26" height="26" viewBox="0 0 26 26" fill="none" xmlns="http://www.w3.org/2000/svg">
<circle cx="13" cy="13" r="13" fill="#3470E4"/>
<g clip-path="url(#clip0_587_479)">
<path d="M14.4993 8.71999C15.187 8.85418 15.8191 9.19055 16.3147 9.68606C16.8102 10.1816 17.1465 10.8137 17.2807 11.5014M14.4993 5.90332C15.9282 6.06206 17.2607 6.70197 18.278 7.71796C19.2953 8.73396 19.9368 10.0657 20.0974 11.4944M19.3932 17.1137V19.2262C19.394 19.4223 19.3538 19.6164 19.2753 19.7961C19.1967 19.9758 19.0815 20.1371 18.937 20.2696C18.7925 20.4022 18.6219 20.5031 18.4361 20.566C18.2503 20.6288 18.0535 20.6521 17.8581 20.6345C15.6913 20.399 13.6099 19.6586 11.7812 18.4727C10.0798 17.3916 8.63731 15.9491 7.55618 14.2477C6.36612 12.4107 5.62553 10.3191 5.39439 8.14257C5.37679 7.94784 5.39993 7.75159 5.46234 7.5663C5.52475 7.38101 5.62505 7.21074 5.75687 7.06634C5.88869 6.92193 6.04913 6.80656 6.22797 6.72756C6.40682 6.64856 6.60016 6.60767 6.79568 6.60749H8.90818C9.24992 6.60412 9.58122 6.72514 9.84033 6.94797C10.0994 7.17081 10.2687 7.48026 10.3165 7.81865C10.4057 8.4947 10.571 9.15849 10.8094 9.79736C10.9042 10.0494 10.9247 10.3233 10.8685 10.5866C10.8124 10.85 10.6819 11.0917 10.4926 11.2832L9.59826 12.1774C10.6007 13.9404 12.0603 15.4 13.8233 16.4024L14.7176 15.5082C14.909 15.3188 15.1507 15.1884 15.4141 15.1322C15.6774 15.076 15.9513 15.0965 16.2033 15.1913C16.8422 15.4297 17.506 15.595 18.1821 15.6842C18.5241 15.7325 18.8365 15.9047 19.0598 16.1683C19.2831 16.4319 19.4018 16.7683 19.3932 17.1137Z" stroke="white" stroke-width="1.3" stroke-linecap="round" stroke-linejoin="round"/>
</g>
<defs>
<clipPath id="clip0_587_479">
<rect width="16.9" height="16.9" fill="white" transform="translate(3.90039 5.2002)"/>
</clipPath>
</defs>
</svg>
