<svg width="89" height="40" viewBox="0 0 89 40" fill="none" xmlns="http://www.w3.org/2000/svg">
<path d="M0.289307 12.46C1.52237 12.46 2.75717 12.46 4.03035 12.46C4.03035 13.2574 4.03035 14.034 4.03035 14.9123C5.02447 12.863 6.69878 12.1191 8.77423 12.1638C10.8671 12.2086 12.456 13.1351 13.3995 15.0052C13.7326 14.5851 14.0361 14.127 14.4146 13.743C15.3808 12.7614 16.5947 12.293 17.9638 12.1811C18.8689 12.107 19.7602 12.1845 20.6235 12.4721C22.2193 13.0008 23.2012 14.1304 23.7646 15.6527C24.1692 16.7463 24.2825 17.888 24.2843 19.0435C24.2878 21.7334 24.286 24.4232 24.286 27.1131C24.286 27.1802 24.2773 27.2491 24.2703 27.3438C23.0512 27.3438 21.8374 27.3438 20.5816 27.3438C20.5816 27.2095 20.5816 27.0769 20.5816 26.9443C20.5816 24.4473 20.5956 21.9521 20.5712 19.4551C20.5659 18.8816 20.4979 18.2892 20.3374 17.7399C20.0078 16.6154 19.2334 15.8938 18.0335 15.7595C16.6749 15.608 15.5186 15.9954 14.7704 17.2147C14.4041 17.8105 14.2227 18.4718 14.2157 19.164C14.1896 21.7385 14.1791 24.313 14.1652 26.8892C14.1652 27.0356 14.1652 27.182 14.1652 27.3507C12.9094 27.3507 11.6816 27.3507 10.4137 27.3507C10.4137 27.2078 10.4137 27.0735 10.4137 26.9409C10.4119 24.2734 10.4189 21.6059 10.3997 18.9384C10.3927 18.0774 10.1677 17.2594 9.56953 16.6033C8.64168 15.5856 7.46792 15.5511 6.25927 15.9317C4.87448 16.3674 4.2658 17.4334 4.10534 18.7886C4.04953 19.2622 4.04779 19.7444 4.04604 20.2214C4.04081 22.4549 4.0443 24.6901 4.0443 26.9237C4.0443 27.058 4.0443 27.194 4.0443 27.3731C2.77636 27.3731 1.53283 27.3731 0.291051 27.3731C0.289307 22.3998 0.289307 17.4299 0.289307 12.46Z" fill="#0A0103"/>
<path d="M38.9448 14.2268C38.9448 13.7136 38.9448 13.1075 38.9448 12.4806C40.1988 12.4806 41.4179 12.4806 42.6649 12.4806C42.6649 17.4212 42.6649 22.3705 42.6649 27.3438C41.4476 27.3438 40.2215 27.3438 38.964 27.3438C38.964 26.7221 38.964 26.1005 38.964 25.4581C38.9012 25.4788 38.8611 25.4788 38.8454 25.4995C37.853 26.8254 36.4456 27.4351 34.855 27.6228C32.4168 27.9121 30.2942 27.194 28.585 25.4288C27.3537 24.158 26.7293 22.6047 26.5514 20.8654C26.3613 19.0142 26.6264 17.2387 27.6153 15.6406C29.1553 13.1522 31.461 12.0381 34.3928 12.1741C35.7479 12.2378 36.9897 12.646 38.0641 13.4898C38.3763 13.736 38.6745 13.9995 38.9448 14.2268ZM34.5079 15.601C32.1098 15.6027 30.2925 17.4367 30.289 19.858C30.2855 22.2999 32.1342 24.2096 34.5114 24.2165C36.9514 24.2251 38.8873 22.2981 38.8838 19.8683C38.8786 17.4953 36.9339 15.5993 34.5079 15.601Z" fill="#0A0103"/>
<path d="M71.0463 14.2355C71.0463 13.712 71.0463 13.1041 71.0463 12.479C72.3003 12.479 73.5194 12.479 74.7647 12.479C74.7647 17.4247 74.7647 22.3739 74.7647 27.3455C73.5421 27.3455 72.316 27.3455 71.0585 27.3455C71.0585 26.7187 71.0585 26.0988 71.0585 25.4151C70.7655 25.7199 70.5371 26.0006 70.2667 26.2314C69.0389 27.2784 67.5687 27.6968 65.9833 27.6865C63.8939 27.6727 62.0888 26.9236 60.6534 25.4031C59.4151 24.0891 58.7907 22.5048 58.6355 20.7259C58.4716 18.8472 58.775 17.0579 59.8215 15.4633C61.372 13.1023 63.6288 12.045 66.4577 12.1724C67.825 12.2344 69.079 12.6408 70.1621 13.4933C70.4743 13.7395 70.769 14.003 71.0463 14.2355ZM66.5989 15.6011C64.2026 15.6045 62.3853 17.4402 62.3835 19.8615C62.3818 22.3016 64.234 24.2114 66.6094 24.2166C69.0511 24.2217 70.9853 22.2947 70.9783 19.8649C70.9731 17.4919 69.0284 15.5976 66.5989 15.6011Z" fill="#0A0103"/>
<path d="M56.6507 16.7858C55.4699 16.7858 54.2979 16.7858 53.1294 16.7858C52.7492 15.2514 51.1464 14.6108 49.8157 15.4512C48.8407 16.0677 48.8634 17.299 49.9081 17.7726C50.5586 18.0687 51.2807 18.2134 51.9766 18.408C53.0492 18.7076 54.1462 18.9281 55.1176 19.5118C57.2297 20.781 57.8192 23.445 56.3908 25.4134C55.6252 26.4673 54.5229 27.051 53.2794 27.3799C51.251 27.9172 49.2785 27.8053 47.4298 26.7497C45.9333 25.8938 45.077 24.6091 44.9427 22.8854C44.9392 22.8423 44.9479 22.7975 44.9514 22.7355C46.1112 22.7355 47.2606 22.7355 48.4396 22.7355C48.5599 23.7584 49.1773 24.3594 50.1697 24.5971C50.979 24.79 51.776 24.7194 52.5277 24.3526C53.1695 24.0391 53.4503 23.526 53.3875 22.894C53.3369 22.3894 53.0248 22.0708 52.587 21.9124C51.9626 21.6868 51.3156 21.5198 50.672 21.3493C49.6395 21.0755 48.6035 20.824 47.646 20.3212C45.3055 19.0917 44.9218 16.5568 45.7589 14.8984C46.3502 13.7257 47.3391 12.9714 48.5704 12.5616C50.7104 11.8504 52.8033 11.9795 54.7496 13.1677C56.0315 13.9513 56.628 15.1602 56.6768 16.6377C56.6803 16.6825 56.6646 16.7255 56.6507 16.7858Z" fill="#0A0103"/>
<path d="M81.7984 12.491C81.7984 17.4454 81.7984 22.386 81.7984 27.3473C80.5583 27.3473 79.3323 27.3473 78.0835 27.3473C78.0835 22.3981 78.0835 17.4592 78.0835 12.491C79.3061 12.491 80.5322 12.491 81.7984 12.491Z" fill="#0A0103"/>
<path d="M81.7986 12.491H78.0854V22.5169L81.7986 17.9999V12.491Z" fill="#ED0331"/>
<path d="M79.9257 9.1364C81.0825 9.1364 82.0203 8.21043 82.0203 7.0682C82.0203 5.92596 81.0825 5 79.9257 5C78.7689 5 77.8311 5.92596 77.8311 7.0682C77.8311 8.21043 78.7689 9.1364 79.9257 9.1364Z" fill="#0A0103"/>
<path d="M84.3948 24.996C84.3948 24.6362 84.4816 24.3022 84.6552 23.994C84.8307 23.6858 85.0725 23.4436 85.3805 23.2672C85.6904 23.0891 86.0246 23 86.3831 23C86.7415 23 87.0748 23.0891 87.3828 23.2672C87.6909 23.4436 87.9317 23.6858 88.1054 23.994C88.2809 24.3022 88.3686 24.6362 88.3686 24.996C88.3686 25.3469 88.2846 25.6756 88.1166 25.982C87.9485 26.2884 87.7096 26.5351 87.3996 26.7221C87.0916 26.9074 86.7527 27 86.3831 27C86.0153 27 85.6764 26.9083 85.3665 26.7248C85.0585 26.5395 84.8195 26.2937 84.6496 25.9873C84.4797 25.6809 84.3948 25.3505 84.3948 24.996ZM84.7168 24.996C84.7168 25.3024 84.7915 25.5865 84.9409 25.8484C85.0902 26.1084 85.2928 26.3124 85.5486 26.4603C85.8062 26.6081 86.0844 26.682 86.3831 26.682C86.6837 26.682 86.9628 26.6072 87.2204 26.4576C87.4781 26.3062 87.6797 26.1013 87.8253 25.843C87.9728 25.5847 88.0465 25.3024 88.0465 24.996C88.0465 24.6914 87.9728 24.4108 87.8253 24.1543C87.6797 23.896 87.4781 23.6929 87.2204 23.5451C86.9628 23.3955 86.6837 23.3206 86.3831 23.3206C86.0844 23.3206 85.8062 23.3946 85.5486 23.5424C85.2909 23.6885 85.0874 23.8916 84.9381 24.1516C84.7906 24.4117 84.7168 24.6932 84.7168 24.996ZM85.9714 25.1964V26.0995H85.5766V23.831H86.3495C86.6351 23.831 86.8564 23.8898 87.0132 24.0073C87.1719 24.1231 87.2512 24.2924 87.2512 24.515C87.2512 24.7341 87.1317 24.9016 86.8928 25.0174C87.1205 25.1064 87.2354 25.2881 87.2372 25.5625V25.7254C87.2372 25.8786 87.2531 25.9891 87.2848 26.0568V26.0995H86.8788C86.8526 26.0354 86.8396 25.9214 86.8396 25.7575C86.8396 25.5918 86.8368 25.4939 86.8312 25.4636C86.8013 25.2926 86.679 25.2035 86.4643 25.1964H85.9714ZM85.9714 24.8544H86.4083C86.5427 24.8508 86.651 24.8196 86.7331 24.7609C86.8153 24.7021 86.8564 24.6246 86.8564 24.5284C86.8564 24.3984 86.82 24.3066 86.7471 24.2532C86.6743 24.198 86.5446 24.1703 86.3579 24.1703H85.9714V24.8544Z" fill="#0A0103"/>
</svg>
