<svg width="114" height="40" viewBox="0 0 114 40" fill="none" xmlns="http://www.w3.org/2000/svg">
<path d="M12.2891 12.7077C13.5252 12.7077 14.763 12.7077 16.0394 12.7077C16.0394 13.505 16.0394 14.2816 16.0394 15.1599C17.0359 13.1106 18.7144 12.3667 20.795 12.4115C22.893 12.4562 24.4858 13.3827 25.4317 15.2529C25.7656 14.8327 26.0698 14.3746 26.4493 13.9906C27.4179 13.009 28.6347 12.5406 30.0072 12.4287C30.9146 12.3546 31.8081 12.4321 32.6735 12.7197C34.2733 13.2484 35.2576 14.3781 35.8224 15.9004C36.228 16.9939 36.3416 18.1356 36.3434 19.2911C36.3469 21.981 36.3451 24.6708 36.3451 27.3607C36.3451 27.4279 36.3364 27.4967 36.3294 27.5915C35.1073 27.5915 33.8904 27.5915 32.6315 27.5915C32.6315 27.4571 32.6315 27.3245 32.6315 27.1919C32.6315 24.695 32.6455 22.1997 32.6211 19.7027C32.6158 19.1292 32.5476 18.5368 32.3868 17.9875C32.0563 16.863 31.28 16.1415 30.0772 16.0071C28.7152 15.8556 27.556 16.2431 26.8059 17.4623C26.4388 18.0581 26.2569 18.7194 26.2499 19.4117C26.2237 21.9861 26.2132 24.5606 26.1992 27.1368C26.1992 27.2832 26.1992 27.4296 26.1992 27.5984C24.9404 27.5984 23.7095 27.5984 22.4384 27.5984C22.4384 27.4554 22.4384 27.3211 22.4384 27.1885C22.4367 24.521 22.4437 21.8535 22.4245 19.1861C22.4175 18.325 22.1919 17.5071 21.5922 16.8509C20.6621 15.8332 19.4854 15.7988 18.2738 16.1793C16.8856 16.615 16.2754 17.681 16.1145 19.0362C16.0586 19.5098 16.0568 19.992 16.0551 20.469C16.0498 22.7025 16.0533 24.9378 16.0533 27.1713C16.0533 27.3056 16.0533 27.4416 16.0533 27.6207C14.7823 27.6207 13.5357 27.6207 12.2908 27.6207C12.2891 22.6474 12.2891 17.6775 12.2891 12.7077Z" fill="#0A0103"/>
<path d="M51.0401 14.4739C51.0401 13.9608 51.0401 13.3546 51.0401 12.7278C52.2972 12.7278 53.5193 12.7278 54.7694 12.7278C54.7694 17.6684 54.7694 22.6176 54.7694 27.5909C53.549 27.5909 52.3199 27.5909 51.0593 27.5909C51.0593 26.9692 51.0593 26.3476 51.0593 25.7053C50.9964 25.7259 50.9562 25.7259 50.9404 25.7466C49.9456 27.0726 48.5346 27.6822 46.9401 27.8699C44.4959 28.1592 42.3681 27.4411 40.6547 25.676C39.4203 24.4051 38.7944 22.8518 38.616 21.1125C38.4255 19.2613 38.6912 17.4858 39.6826 15.8878C41.2264 13.3994 43.5377 12.2852 46.4768 12.4212C47.8353 12.485 49.0801 12.8931 50.1571 13.7369C50.4701 13.9832 50.7691 14.2466 51.0401 14.4739ZM46.5922 15.8481C44.1881 15.8499 42.3663 17.6839 42.3628 20.1051C42.3593 22.547 44.2126 24.4568 46.5957 24.4636C49.0417 24.4723 50.9824 22.5453 50.9789 20.1154C50.9736 17.7424 49.0242 15.8464 46.5922 15.8481Z" fill="#0A0103"/>
<path d="M83.2217 14.4835C83.2217 13.9599 83.2217 13.3521 83.2217 12.7269C84.4788 12.7269 85.7009 12.7269 86.9492 12.7269C86.9492 17.6727 86.9492 22.6219 86.9492 27.5935C85.7236 27.5935 84.4945 27.5935 83.2339 27.5935C83.2339 26.9667 83.2339 26.3468 83.2339 25.6631C82.9402 25.9679 82.7111 26.2486 82.4401 26.4794C81.2093 27.5264 79.7354 27.9448 78.1461 27.9345C76.0515 27.9207 74.2419 27.1716 72.803 25.651C71.5617 24.3371 70.9357 22.7528 70.7801 20.9739C70.6158 19.0951 70.92 17.3059 71.969 15.7113C73.5234 13.3503 75.7858 12.293 78.6217 12.4204C79.9924 12.4824 81.2495 12.8888 82.3352 13.7412C82.6482 13.9875 82.9437 14.251 83.2217 14.4835ZM78.7633 15.849C76.361 15.8525 74.5392 17.6882 74.5374 20.1094C74.5357 22.5496 76.3925 24.4594 78.7738 24.4645C81.2215 24.4697 83.1605 22.5427 83.1535 20.1129C83.1482 17.7399 81.1988 15.8456 78.7633 15.849Z" fill="#0A0103"/>
<path d="M68.7905 17.0334C67.6068 17.0334 66.4319 17.0334 65.2605 17.0334C64.8793 15.499 63.2726 14.8584 61.9385 15.6988C60.9612 16.3153 60.9839 17.5465 62.0312 18.0201C62.6834 18.3163 63.4072 18.461 64.1048 18.6556C65.1801 18.9552 66.2798 19.1756 67.2536 19.7594C69.3709 21.0286 69.9619 23.6926 68.53 25.6609C67.7624 26.7148 66.6574 27.2986 65.4108 27.6275C63.3775 28.1648 61.4 28.0529 59.5467 26.9972C58.0466 26.1414 57.1882 24.8567 57.0535 23.1329C57.05 23.0899 57.0588 23.0451 57.0623 22.9831C58.225 22.9831 59.3772 22.9831 60.5591 22.9831C60.6797 24.006 61.2986 24.607 62.2935 24.8447C63.1047 25.0375 63.9037 24.9669 64.6573 24.6001C65.3007 24.2867 65.5822 23.7735 65.5192 23.1415C65.4685 22.637 65.1556 22.3184 64.7167 22.16C64.0908 21.9344 63.4422 21.7673 62.797 21.5968C61.762 21.323 60.7234 21.0716 59.7635 20.5688C57.4172 19.3392 57.0326 16.8043 57.8718 15.146C58.4645 13.9733 59.4558 13.219 60.6902 12.8091C62.8355 12.0979 64.9335 12.2271 66.8847 13.4153C68.1698 14.1988 68.7677 15.4077 68.8167 16.8853C68.8202 16.93 68.8045 16.9731 68.7905 17.0334Z" fill="#0A0103"/>
<path d="M93.9995 12.7383C93.9995 17.6927 93.9995 22.6333 93.9995 27.5945C92.7563 27.5945 91.5272 27.5945 90.2754 27.5945C90.2754 22.6453 90.2754 17.7064 90.2754 12.7383C91.501 12.7383 92.7301 12.7383 93.9995 12.7383Z" fill="#0A0103"/>
<path d="M93.9997 12.7383H90.2773V22.7641L93.9997 18.2472V12.7383Z" fill="#ED0331"/>
<path d="M92.1233 9.38444C93.283 9.38444 94.2231 8.45848 94.2231 7.31625C94.2231 6.17401 93.283 5.24805 92.1233 5.24805C90.9636 5.24805 90.0234 6.17401 90.0234 7.31625C90.0234 8.45848 90.9636 9.38444 92.1233 9.38444Z" fill="#0A0103"/>
<path d="M96.6035 25.996C96.6035 25.6362 96.6905 25.3022 96.8646 24.994C97.0405 24.6858 97.2829 24.4436 97.5917 24.2672C97.9024 24.0891 98.2374 24 98.5967 24C98.9561 24 99.2902 24.0891 99.599 24.2672C99.9078 24.4436 100.149 24.6858 100.323 24.994C100.499 25.3022 100.587 25.6362 100.587 25.996C100.587 26.3469 100.503 26.6756 100.334 26.982C100.166 27.2884 99.9265 27.5351 99.6158 27.7221C99.307 27.9074 98.9673 28 98.5967 28C98.228 28 97.8884 27.9083 97.5777 27.7248C97.2689 27.5395 97.0293 27.2937 96.859 26.9873C96.6887 26.6809 96.6035 26.3505 96.6035 25.996ZM96.9264 25.996C96.9264 26.3024 97.0012 26.5865 97.151 26.8484C97.3007 27.1084 97.5037 27.3124 97.7601 27.4603C98.0184 27.6081 98.2973 27.682 98.5967 27.682C98.8981 27.682 99.1779 27.6072 99.4361 27.4576C99.6944 27.3062 99.8965 27.1013 100.043 26.843C100.19 26.5847 100.264 26.3024 100.264 25.996C100.264 25.6914 100.19 25.4108 100.043 25.1543C99.8965 24.896 99.6944 24.6929 99.4361 24.5451C99.1779 24.3955 98.8981 24.3206 98.5967 24.3206C98.2973 24.3206 98.0184 24.3946 97.7601 24.5424C97.5019 24.6885 97.2979 24.8916 97.1481 25.1516C97.0003 25.4117 96.9264 25.6932 96.9264 25.996ZM98.1841 26.1964V27.0995H97.7882V24.831H98.5631C98.8494 24.831 99.0712 24.8898 99.2284 25.0073C99.3875 25.1231 99.467 25.2924 99.467 25.515C99.467 25.7341 99.3472 25.9016 99.1077 26.0174C99.336 26.1064 99.4511 26.2881 99.453 26.5625V26.7254C99.453 26.8786 99.4689 26.9891 99.5007 27.0568V27.0995H99.0936C99.0674 27.0354 99.0543 26.9214 99.0543 26.7575C99.0543 26.5918 99.0515 26.4939 99.0459 26.4636C99.016 26.2926 98.8934 26.2035 98.6782 26.1964H98.1841ZM98.1841 25.8544H98.622C98.7568 25.8508 98.8653 25.8196 98.9477 25.7609C99.03 25.7021 99.0712 25.6246 99.0712 25.5284C99.0712 25.3984 99.0347 25.3066 98.9617 25.2532C98.8887 25.198 98.7586 25.1703 98.5715 25.1703H98.1841V25.8544Z" fill="#0A0103"/>
</svg>
