<svg width="180" height="32" viewBox="0 0 180 32" fill="none" xmlns="http://www.w3.org/2000/svg">
<path fill-rule="evenodd" clip-rule="evenodd" d="M0.156738 16.0004C0.156738 7.25083 7.24993 0.156738 16.0004 0.156738C20.2021 0.157939 24.2313 1.82757 27.2023 4.79857C30.1733 7.76958 31.8429 11.7988 31.8441 16.0004C31.8429 20.2021 30.1733 24.2313 27.2023 27.2023C24.2313 30.1733 20.2021 31.8429 16.0004 31.8441C7.24993 31.8441 0.156738 24.7509 0.156738 16.0004Z" fill="#FD3753"/>
<mask id="mask0_24537_260060" style="mask-type:luminance" maskUnits="userSpaceOnUse" x="0" y="0" width="33" height="32">
<path d="M0 0H32.0009V32H0V0Z" fill="#D31831"/>
</mask>
<g mask="url(#mask0_24537_260060)">
<path fill-rule="evenodd" clip-rule="evenodd" d="M16.0005 0.313521C7.35053 0.313521 0.313521 7.35053 0.313521 16.0005C0.313521 24.6504 7.35053 31.6874 16.0005 31.6874C24.6504 31.6874 31.6874 24.6504 31.6874 16.0005C31.6874 7.35053 24.6495 0.313521 16.0005 0.313521ZM16.0005 32.0009C7.17746 32.0009 0 24.8235 0 16.0005C0 7.17746 7.17746 0 16.0005 0C24.8235 0 32.0009 7.17746 32.0009 16.0005C32.0009 24.8235 24.8235 32.0009 16.0005 32.0009Z" fill="#D31831"/>
</g>
<path fill-rule="evenodd" clip-rule="evenodd" d="M13.9688 22.9097C14.4309 22.4231 14.662 21.8232 14.662 21.1092C14.662 20.7685 14.6013 20.4486 14.4798 20.1487C14.36 19.8521 14.1867 19.58 13.9688 19.3459C13.7495 19.1112 13.4985 18.9245 13.2149 18.7868C12.9313 18.6491 12.6187 18.5793 12.2779 18.5793C11.9699 18.5793 11.6699 18.6445 11.3782 18.7741C11.0881 18.9029 10.8272 19.0894 10.6116 19.3223C10.3932 19.5579 10.2183 19.8288 10.0887 20.1369C9.95951 20.445 9.89356 20.776 9.89482 21.1101C9.89482 21.4508 9.95553 21.7752 10.077 22.0833C10.1984 22.3914 10.3687 22.6596 10.588 22.8861C10.8073 23.1127 11.0583 23.2957 11.3419 23.4334C11.6255 23.5712 11.9372 23.64 12.2779 23.64C12.943 23.64 13.5067 23.3972 13.9688 22.9106V22.9097ZM10.8671 24.345C10.4385 24.1729 10.0465 23.9211 9.71178 23.6029C9.37899 23.2868 9.11387 22.9064 8.93251 22.4847C8.74566 22.0507 8.65063 21.5827 8.65342 21.1101C8.64974 20.6416 8.74483 20.1775 8.93251 19.7482C9.11918 19.3259 9.37923 18.9571 9.71178 18.6409C10.0468 18.323 10.4387 18.0713 10.8671 17.8988C11.3057 17.7203 11.7759 17.6315 12.2779 17.6315C12.7612 17.6277 13.2404 17.7185 13.6888 17.8988C14.1274 18.0773 14.5125 18.3247 14.845 18.6409C15.1776 18.9571 15.4376 19.3259 15.6234 19.7482C15.8091 20.1704 15.9034 20.6235 15.9034 21.1101C15.9034 21.5967 15.81 22.0552 15.6234 22.4847C15.4427 22.9065 15.1779 23.287 14.845 23.6029C14.51 23.9212 14.1177 24.173 13.6888 24.345C13.2511 24.5235 12.7808 24.6123 12.2779 24.6123C11.775 24.6123 11.3057 24.5235 10.8671 24.345ZM21.3637 12.6922C21.6473 12.5626 21.8992 12.3795 22.1176 12.1448C22.3391 11.9067 22.5161 11.6308 22.6405 11.3302C22.7709 11.0231 22.8353 10.6978 22.8353 10.3571C22.8375 10.0277 22.7753 9.70114 22.6522 9.39565C22.5308 9.09572 22.3605 8.82841 22.1412 8.59282C21.9219 8.35722 21.6673 8.17147 21.3746 8.03373C21.0858 7.89666 20.77 7.82606 20.4503 7.82714C20.14 7.82767 19.8333 7.89408 19.5506 8.02195C19.2604 8.15081 18.9966 8.33204 18.7722 8.55657C18.5457 8.78401 18.3671 9.05132 18.2367 9.3594C18.1062 9.66749 18.0418 10 18.0418 10.3561C18.0418 10.6969 18.1026 11.0176 18.224 11.3166C18.3454 11.6157 18.5157 11.8848 18.735 12.1204C18.9522 12.3543 19.2125 12.5441 19.5016 12.6795C19.7984 12.8184 20.1226 12.889 20.4503 12.8861C20.765 12.8882 21.0764 12.8217 21.3628 12.6912L21.3637 12.6922ZM22.6405 24.4664L16.0003 16.0004L9.23697 7.72927L10.0878 6.99984L16.6799 15.4414L23.4913 23.7125L22.6405 24.4664ZM19.0286 13.5684C18.5979 13.3999 18.205 13.1476 17.8724 12.8263C17.548 12.51 17.2888 12.1412 17.094 11.7199C16.8983 11.2924 16.7988 10.8272 16.8023 10.3571C16.8023 9.87046 16.9001 9.41649 17.094 8.99514C17.2879 8.57379 17.548 8.20499 17.8724 7.88785C18.2068 7.56585 18.5991 7.31005 19.0286 7.13395C19.4753 6.94728 19.9492 6.85486 20.4512 6.85486C20.9532 6.85486 21.4244 6.94819 21.8621 7.13395C22.2896 7.31391 22.6812 7.56928 23.0183 7.88785C23.3509 8.20499 23.61 8.57379 23.7967 8.99514C23.9833 9.41649 24.0767 9.87137 24.0767 10.3571C24.0767 10.8427 23.9833 11.2976 23.7967 11.7199C23.61 12.1421 23.3509 12.51 23.0183 12.8263C22.6831 13.1442 22.2908 13.396 21.8621 13.5684C21.4138 13.7488 20.9345 13.8396 20.4512 13.8357C19.9643 13.8389 19.4812 13.7481 19.0286 13.5684Z" fill="white"/>
<path fill-rule="evenodd" clip-rule="evenodd" d="M42.9622 13.5684V24.6368H39.605V7.36502H42.2083L51.2089 18.7007V7.38949H54.5661V24.6368H51.8423L42.9622 13.5684ZM60.5502 16.0014C60.5485 16.7354 60.6591 17.4655 60.8782 18.1661C61.0819 18.8341 61.4032 19.4604 61.8269 20.0155C62.2372 20.5477 62.7554 20.9871 63.3474 21.3049C63.9473 21.6293 64.6287 21.7915 65.3907 21.7915C66.1691 21.7915 66.8541 21.6257 67.4458 21.2932C68.0375 20.9606 68.5368 20.5184 68.9419 19.9675C69.3469 19.4166 69.6559 18.7959 69.8661 18.1063C70.0755 17.4246 70.1821 16.7154 70.1824 16.0023C70.1841 15.2669 70.0691 14.5359 69.8417 13.8366C69.6142 13.1398 69.2944 12.5227 68.8802 11.9881C68.4661 11.4535 67.9641 11.0276 67.3724 10.7105C66.7807 10.3933 66.1111 10.2356 65.3654 10.2356C64.587 10.2356 63.902 10.4024 63.3103 10.7349C62.7186 11.0675 62.2157 11.5051 61.8016 12.0479C61.3875 12.5907 61.0757 13.2078 60.8655 13.8973C60.6558 14.579 60.5501 15.2882 60.5502 16.0014ZM65.3418 24.7591C64.1258 24.7591 63.014 24.5126 62.0091 24.017C61.0236 23.5379 60.1431 22.868 59.4184 22.0461C58.6972 21.2279 58.1408 20.291 57.7521 19.2362C57.3633 18.1815 57.1685 17.1041 57.1685 16.0014C57.1685 14.8497 57.3751 13.7469 57.7883 12.6931C58.2015 11.6392 58.7778 10.7068 59.5154 9.89584C60.252 9.0862 61.1405 8.42919 62.1305 7.96216C63.1363 7.48373 64.23 7.24451 65.4152 7.24451C66.6312 7.24451 67.7421 7.50004 68.7479 8.01109C69.7307 8.50434 70.6067 9.18635 71.3259 10.0182C72.043 10.8513 72.6036 11.8072 72.9805 12.8399C73.3647 13.867 73.5623 14.9545 73.564 16.0512C73.5685 17.1794 73.3582 18.2981 72.9442 19.3477C72.5459 20.3686 71.9646 21.3082 71.2289 22.1205C70.4957 22.9257 69.6111 23.5787 68.6256 24.0424C67.6198 24.5208 66.5252 24.7591 65.3418 24.7591Z" fill="#222222"/>
<path fill-rule="evenodd" clip-rule="evenodd" d="M87.479 19.7962C87.479 19.4066 87.4101 19.0296 87.2724 18.6653C87.1346 18.3011 86.948 17.9803 86.7124 17.7039C86.48 17.4305 86.1945 17.207 85.8733 17.047C85.5407 16.883 85.1741 16.7995 84.8032 16.8032H78.6243V22.7393H84.6328C85.0195 22.7435 85.402 22.6601 85.7519 22.4956C86.0926 22.3343 86.3925 22.1186 86.6517 21.8513C86.9126 21.5809 87.119 21.2628 87.2597 20.9144C87.4056 20.5583 87.479 20.184 87.479 19.7953V19.7962ZM78.6243 9.26243V15.0281H84.1218C84.5114 15.0281 84.8675 14.9511 85.1919 14.7971C85.5163 14.643 85.7963 14.4364 86.031 14.1764C86.2657 13.9163 86.4523 13.6128 86.5901 13.2639C86.7278 12.915 86.7967 12.5462 86.7967 12.1566C86.7991 11.7673 86.7332 11.3805 86.6018 11.014C86.4834 10.6775 86.3064 10.3646 86.079 10.0897C85.8597 9.82994 85.5855 9.62199 85.2762 9.48081C84.9597 9.3351 84.6151 9.26056 84.2668 9.26243H78.6243ZM89.6927 20.1849C89.7003 20.8159 89.563 21.4403 89.2912 22.0099C89.0304 22.5524 88.6573 23.0333 88.1966 23.4207C87.7345 23.8104 87.199 24.1103 86.591 24.3205C85.983 24.5307 85.3296 24.6367 84.6328 24.6367H76.4351V7.36499H85.0225C85.6223 7.36499 86.166 7.49457 86.6526 7.75463C87.1392 8.01469 87.5524 8.35086 87.8931 8.76406C88.2338 9.17725 88.4975 9.64753 88.6841 10.1749C88.8708 10.7023 88.9641 11.2333 88.9641 11.7679C88.9641 12.6278 88.7494 13.4225 88.3199 14.1519C87.8904 14.8813 87.2778 15.425 86.4831 15.782C87.4726 16.0738 88.2546 16.6139 88.8309 17.3995C89.4072 18.1851 89.6945 19.1148 89.6945 20.1849H89.6927Z" fill="#424242"/>
<path d="M94.9719 16.487H100.202C100.656 16.487 101.066 16.3891 101.431 16.1952C101.796 16.0013 102.108 15.7376 102.368 15.4051C102.628 15.0725 102.83 14.6874 102.977 14.2489C103.123 13.8103 103.195 13.3572 103.195 12.8869C103.198 12.417 103.111 11.9507 102.94 11.5133C102.769 11.0838 102.542 10.7023 102.259 10.3697C101.976 10.0372 101.642 9.77802 101.261 9.59135C100.887 9.40645 100.475 9.31063 100.057 9.31136H94.9728V16.4879L94.9719 16.487ZM92.7827 24.6358V7.36499H100.178C100.94 7.36499 101.641 7.52266 102.282 7.8398C102.911 8.14789 103.474 8.57784 103.936 9.10476C104.397 9.62985 104.763 10.2307 105.019 10.8808C105.275 11.5191 105.407 12.2002 105.408 12.8879C105.409 13.4769 105.323 14.063 105.152 14.6267C104.982 15.1867 104.739 15.6932 104.423 16.1472C104.11 16.598 103.723 16.9929 103.279 17.3152C102.833 17.6396 102.334 17.8752 101.783 18.0202L105.968 24.6367H103.487L99.5461 18.4334H94.9728V24.6367H92.7836L92.7827 24.6358Z" fill="#424242"/>
<path fill-rule="evenodd" clip-rule="evenodd" d="M110.078 16.0014C110.078 16.8767 110.219 17.7248 110.504 18.543C110.772 19.3348 111.18 20.0721 111.708 20.7205C112.221 21.3481 112.859 21.8617 113.582 22.2283C114.312 22.6007 115.122 22.7883 116.014 22.7883C116.938 22.7883 117.765 22.5898 118.495 22.192C119.224 21.7942 119.845 21.2759 120.356 20.6353C120.872 19.9849 121.267 19.2475 121.523 18.4579C121.791 17.6469 121.925 16.8277 121.925 16.0014C121.926 15.1359 121.782 14.2764 121.499 13.4588C121.215 12.6387 120.809 11.9183 120.283 11.294C119.764 10.6763 119.127 10.1678 118.41 9.79798C117.688 9.42466 116.89 9.23799 116.014 9.23799C115.09 9.23799 114.262 9.43281 113.533 9.82245C112.815 10.202 112.182 10.7237 111.672 11.3556C111.153 12.0017 110.754 12.7346 110.492 13.5204C110.218 14.3189 110.078 15.1572 110.078 16.0014ZM115.989 24.7591C114.773 24.7591 113.666 24.5126 112.668 24.017C111.671 23.5213 110.815 22.8653 110.102 22.0461C109.389 21.227 108.837 20.291 108.448 19.2362C108.058 18.1815 107.863 17.1041 107.863 16.0014C107.863 14.8497 108.07 13.7469 108.484 12.6931C108.882 11.6647 109.463 10.7169 110.199 9.89584C110.93 9.08486 111.792 8.4406 112.79 7.96216C113.788 7.48373 114.869 7.24451 116.037 7.24451C117.254 7.24451 118.356 7.50004 119.346 8.01109C120.319 8.50909 121.186 9.19064 121.9 10.0182C122.616 10.8481 123.176 11.7999 123.555 12.8281C123.94 13.8507 124.137 14.9341 124.138 16.0267C124.142 17.1587 123.932 18.2812 123.519 19.335C123.104 20.3888 122.537 21.3176 121.816 22.1205C121.095 22.9233 120.235 23.5639 119.237 24.0424C118.239 24.5208 117.157 24.7591 115.989 24.7591ZM127.204 24.6368V7.38949H129.393V16.9247L138.297 7.36502H140.656L133.722 14.9792L141.045 24.6368H138.661L132.385 16.2442L129.393 19.3577V24.6368H127.204ZM154.717 22.6904V24.6368H142.991V7.36502H154.498V9.31139H145.181V14.9067H153.282V16.7308H145.181V22.6913L154.717 22.6904Z" fill="#424242"/>
<path d="M160.02 16.487H165.25C165.704 16.487 166.114 16.3891 166.479 16.1952C166.844 16.0013 167.156 15.7376 167.416 15.4051C167.676 15.0725 167.878 14.6874 168.025 14.2489C168.172 13.8103 168.243 13.3572 168.243 12.8869C168.246 12.417 168.16 11.9507 167.988 11.5133C167.818 11.0838 167.59 10.7023 167.307 10.3697C167.025 10.0372 166.69 9.77802 166.31 9.59135C165.935 9.40645 165.523 9.31063 165.105 9.31136H160.021V16.4879L160.02 16.487ZM157.831 24.6358V7.36499H165.226C165.988 7.36499 166.689 7.52266 167.33 7.8398C167.96 8.14789 168.522 8.57784 168.985 9.10476C169.445 9.62985 169.812 10.2307 170.067 10.8808C170.323 11.5191 170.455 12.2002 170.456 12.8879C170.458 13.4769 170.372 14.063 170.201 14.6267C170.03 15.1867 169.787 15.6932 169.471 16.1472C169.158 16.598 168.772 16.9929 168.328 17.3152C167.881 17.6396 167.383 17.8752 166.832 18.0202L171.016 24.6367H168.535L164.594 18.4334H160.021V24.6367H157.832L157.831 24.6358Z" fill="#424242"/>
</svg>
