<svg width="32" height="32" viewBox="0 0 32 32" fill="none" xmlns="http://www.w3.org/2000/svg">
<g clip-path="url(#clip0_24524_257285)">
<path d="M14.4354 0.657778C14.3287 0.686222 14.1509 0.707554 14.0443 0.711111C13.9376 0.711111 13.7598 0.736 13.6532 0.764444C13.5465 0.792889 13.4114 0.817778 13.3545 0.817778C13.0985 0.817778 11.342 1.28 10.9616 1.44355C10.9012 1.472 10.8194 1.49333 10.7803 1.49333C10.7376 1.49333 10.6985 1.50756 10.6843 1.52533C10.6736 1.54311 10.6132 1.57155 10.5527 1.58578C10.4887 1.59644 10.414 1.62133 10.382 1.63556C10.3536 1.64978 10.2647 1.68889 10.1865 1.72089C10.1083 1.75644 9.99804 1.80622 9.94471 1.83467C9.88782 1.86311 9.81315 1.88444 9.7776 1.88444C9.7456 1.88444 9.69582 1.90933 9.67093 1.93778C9.64604 1.96622 9.59982 1.99111 9.56426 1.99111C9.52871 1.99111 9.48249 2.016 9.4576 2.04444C9.43271 2.07289 9.38293 2.09778 9.34738 2.09778C9.31538 2.09778 9.26204 2.12267 9.23004 2.15111C9.2016 2.17955 9.15538 2.20444 9.12338 2.20444C9.09493 2.20444 9.06293 2.21867 9.04871 2.23644C9.03804 2.25778 8.9456 2.31111 8.84249 2.36444C8.74293 2.41422 8.63271 2.46755 8.60426 2.48889C8.57582 2.50667 8.40871 2.60266 8.23093 2.70578C8.05671 2.80889 7.90738 2.90489 7.90026 2.92267C7.89315 2.93689 7.87182 2.95111 7.85049 2.95111C7.80426 2.95111 7.12871 3.39911 7.00426 3.50933C6.95449 3.55556 6.90471 3.59111 6.89049 3.59111C6.85138 3.59111 6.52782 3.84 6.5136 3.87911C6.50649 3.89689 6.47804 3.91111 6.4496 3.91111C6.42115 3.91111 6.39982 3.92533 6.39982 3.93955C6.39982 3.95733 6.32871 4.02133 6.24338 4.08178C5.98382 4.27022 5.8416 4.40178 5.1376 5.10222C4.35538 5.888 4.15982 6.09778 4.15982 6.144C4.15982 6.16533 4.14915 6.18667 4.13138 6.19378C4.11715 6.19733 4.04249 6.28267 3.96426 6.38222C3.88604 6.47822 3.80071 6.57422 3.77938 6.58844C3.75449 6.60267 3.73315 6.63111 3.73315 6.65244C3.73315 6.67022 3.71538 6.70578 3.6976 6.73067C3.6016 6.84089 3.30649 7.25333 3.30649 7.27111C3.30649 7.28178 3.27804 7.32444 3.24249 7.36355C3.20338 7.39911 3.1536 7.47733 3.12515 7.53067C3.10026 7.584 3.03626 7.68356 2.98649 7.75111C2.87982 7.90044 2.82293 7.99289 2.77315 8.08889C2.75182 8.128 2.7056 8.20622 2.66649 8.26667C2.62738 8.32355 2.58115 8.40889 2.56338 8.45156C2.5456 8.49067 2.51004 8.53689 2.49226 8.55111C2.47093 8.56178 2.45315 8.60444 2.45315 8.64355C2.45315 8.67911 2.43893 8.71111 2.4176 8.71111C2.39982 8.71111 2.37493 8.75022 2.36071 8.8C2.35004 8.84622 2.31804 8.90311 2.2896 8.928C2.26115 8.94933 2.23982 8.99555 2.23982 9.03111C2.23982 9.06667 2.21493 9.11289 2.18649 9.13778C2.15804 9.16267 2.13315 9.20533 2.13315 9.23378C2.13315 9.26222 2.10826 9.30844 2.07982 9.33689C2.05138 9.36889 2.02649 9.42222 2.02649 9.45422C2.02649 9.48978 2.0016 9.53955 1.97315 9.56444C1.94471 9.58933 1.91982 9.64622 1.91982 9.69244C1.91982 9.73867 1.9056 9.77778 1.88426 9.77778C1.86649 9.77778 1.83804 9.82044 1.82738 9.87378C1.81315 9.93067 1.78115 10.0053 1.75626 10.0444C1.72782 10.0836 1.70649 10.1476 1.70649 10.1902C1.70649 10.2329 1.68871 10.2756 1.66738 10.2827C1.64604 10.2898 1.62115 10.336 1.6176 10.3822C1.61049 10.432 1.58204 10.5173 1.55004 10.5778C1.51804 10.6347 1.49315 10.7058 1.49315 10.7307C1.49315 10.7556 1.47893 10.8018 1.46115 10.8373C1.35449 11.04 1.02382 12.2027 0.906487 12.7822C0.874487 12.9387 0.824709 13.1591 0.796264 13.2693C0.76782 13.3831 0.746487 13.536 0.746487 13.6071C0.746487 13.6818 0.728709 13.7991 0.707375 13.8667C0.686042 13.9342 0.654042 14.1653 0.63982 14.3822C0.622042 14.5956 0.590042 14.8836 0.572264 15.0222C0.526042 15.328 0.526042 17.0062 0.572264 17.2978C0.590042 17.4151 0.618487 17.6853 0.636264 17.9022C0.654042 18.1156 0.686042 18.3396 0.707375 18.3929C0.728709 18.4498 0.746487 18.5636 0.746487 18.6524C0.746487 18.7413 0.76782 18.912 0.796264 19.0329C0.824709 19.1538 0.874487 19.3813 0.906487 19.5378C1.01671 20.0498 1.27982 20.9956 1.37582 21.216C1.40071 21.2764 1.42204 21.3511 1.42204 21.3796C1.42204 21.408 1.44693 21.4791 1.47538 21.5324C1.50382 21.5893 1.52871 21.664 1.52871 21.696C1.52871 21.7316 1.54649 21.76 1.56426 21.76C1.5856 21.76 1.59982 21.8062 1.59982 21.8631C1.59982 21.92 1.62471 21.984 1.65315 22.0089C1.6816 22.0338 1.7136 22.1049 1.72782 22.1724C1.73849 22.24 1.76338 22.2933 1.78115 22.2933C1.79893 22.2933 1.81315 22.3324 1.81315 22.3787C1.81315 22.4249 1.83804 22.4818 1.86649 22.5067C1.89493 22.5316 1.91982 22.5813 1.91982 22.6169C1.91982 22.6489 1.94471 22.7022 1.97315 22.7342C2.0016 22.7627 2.02649 22.816 2.02649 22.8551C2.02649 22.8942 2.05138 22.944 2.07982 22.9689C2.10826 22.9938 2.13315 23.04 2.13315 23.0756C2.13315 23.1111 2.15804 23.1573 2.18649 23.1822C2.21493 23.2071 2.23982 23.2569 2.23982 23.296C2.23982 23.3316 2.26471 23.3707 2.29315 23.3813C2.3216 23.3956 2.34649 23.4311 2.34649 23.4667C2.34649 23.5058 2.36426 23.5449 2.3856 23.5556C2.40338 23.5698 2.43893 23.616 2.45671 23.6551C2.47449 23.6978 2.52071 23.7796 2.55982 23.84C2.59893 23.8969 2.64515 23.9787 2.66293 24.0178C2.68071 24.0569 2.73404 24.1458 2.78026 24.2133C2.82649 24.2809 2.87626 24.3627 2.89049 24.3911C2.94738 24.5049 3.33493 25.0987 3.3776 25.1378C3.38826 25.1484 3.45582 25.248 3.53404 25.3582C3.60871 25.472 3.68338 25.5644 3.70115 25.5644C3.71893 25.5644 3.73315 25.5858 3.73315 25.6071C3.73315 25.632 3.78649 25.7138 3.85049 25.7849C3.91093 25.856 3.98915 25.9484 4.0176 25.9911C4.1776 26.2222 5.96604 28.0533 6.0336 28.0533C6.05493 28.0533 6.07982 28.0782 6.09404 28.1067C6.10471 28.1351 6.13671 28.16 6.16515 28.16C6.1936 28.16 6.22204 28.1742 6.22915 28.192C6.25404 28.2596 7.73671 29.3333 7.80782 29.3333C7.81493 29.3333 7.8896 29.3796 7.97138 29.44C8.0496 29.4969 8.13849 29.5467 8.16693 29.5467C8.19182 29.5467 8.21315 29.5609 8.21315 29.5751C8.21315 29.5893 8.30204 29.6462 8.40871 29.7031C8.51538 29.7564 8.61138 29.8169 8.62204 29.8347C8.63626 29.8524 8.67538 29.8667 8.71449 29.8667C8.75004 29.8667 8.78204 29.8809 8.78204 29.8951C8.78204 29.9129 8.87093 29.9627 8.9776 30.0124C9.08426 30.0587 9.17315 30.1084 9.17315 30.1227C9.17315 30.1404 9.19093 30.1511 9.21226 30.1511C9.25138 30.1511 9.70649 30.3573 9.89493 30.4569C9.94826 30.4853 10.0052 30.5031 10.0229 30.4924C10.0407 30.4818 10.0727 30.496 10.0976 30.5244C10.1225 30.5529 10.158 30.5778 10.1829 30.5778C10.2185 30.5778 10.4532 30.6631 10.7198 30.7733C11.054 30.912 12.3945 31.2996 12.7465 31.36C12.846 31.3742 12.9705 31.4062 13.0238 31.4276C13.0807 31.4489 13.2016 31.4667 13.294 31.4667C13.3865 31.4667 13.4789 31.4844 13.5003 31.5058C13.5216 31.5271 13.6709 31.552 13.8345 31.5627C13.998 31.5733 14.1652 31.5982 14.2007 31.6196C14.2896 31.6658 15.4345 31.7298 16.1243 31.7262C16.9029 31.7227 17.9269 31.6658 18.0158 31.616C18.0585 31.5911 18.1936 31.5733 18.318 31.5733C18.4425 31.5698 18.606 31.5484 18.6843 31.52C18.7625 31.4916 18.894 31.4667 18.9794 31.4667C19.0612 31.4667 19.1892 31.4418 19.2603 31.4133C19.3278 31.3849 19.4274 31.36 19.4772 31.36C19.5269 31.36 19.6478 31.3387 19.7474 31.3102C19.8469 31.2818 20.1385 31.2 20.3909 31.1253C20.974 30.9618 21.4647 30.8018 21.5892 30.7342C21.6389 30.7058 21.71 30.6844 21.7492 30.6844C21.7847 30.6844 21.8452 30.6596 21.8807 30.6311C21.9198 30.6027 21.9838 30.5778 22.0229 30.5778C22.0656 30.5778 22.1296 30.5529 22.1652 30.5244C22.2043 30.496 22.2647 30.4711 22.3003 30.4711C22.3358 30.4711 22.3643 30.4533 22.3643 30.4356C22.3643 30.4142 22.382 30.4 22.4034 30.4C22.4638 30.4 23.4274 29.952 23.4665 29.9058C23.4772 29.8951 23.5554 29.8489 23.6443 29.8027C23.7332 29.7564 23.854 29.6889 23.9109 29.6533C23.9714 29.6142 24.0496 29.568 24.0887 29.5467C24.1278 29.5253 24.2096 29.4791 24.2665 29.44C24.3269 29.4009 24.4087 29.3511 24.4549 29.3298C24.4976 29.3049 24.5332 29.2729 24.5332 29.2551C24.5332 29.2409 24.5474 29.2267 24.5687 29.2267C24.6007 29.2267 24.7856 29.1058 25.2443 28.7822C25.6425 28.5049 25.8309 28.3627 25.8665 28.32C25.8878 28.2987 25.9732 28.224 26.062 28.1564C26.3252 27.9538 26.3998 27.8862 27.1074 27.1751C27.9536 26.3289 28.0887 26.1831 28.0887 26.1404C28.0887 26.1191 28.0994 26.0978 28.1172 26.0907C28.1385 26.0836 28.2274 25.9733 28.4549 25.6889C28.4692 25.6711 28.5865 25.5076 28.7109 25.3333C28.8354 25.1556 28.9883 24.9458 29.0452 24.864C29.1056 24.7822 29.1554 24.6969 29.1554 24.6756C29.1554 24.6578 29.1696 24.64 29.1909 24.64C29.2087 24.64 29.2336 24.6009 29.2478 24.5511C29.2585 24.5013 29.2834 24.4622 29.3012 24.4622C29.3189 24.4622 29.3509 24.4267 29.3687 24.3804C29.39 24.3378 29.4363 24.2524 29.4754 24.1956C29.5145 24.1351 29.5607 24.0533 29.5785 24.0107C29.5963 23.9716 29.6318 23.9253 29.6496 23.9111C29.6709 23.9004 29.6887 23.8613 29.6887 23.8222C29.6887 23.7867 29.7136 23.7511 29.742 23.7369C29.7705 23.7262 29.7954 23.6871 29.7954 23.648C29.7954 23.6124 29.8203 23.5733 29.8487 23.5591C29.8772 23.5484 29.902 23.5093 29.902 23.4738C29.902 23.4347 29.9269 23.3849 29.9554 23.36C29.9838 23.3351 30.0087 23.2889 30.0087 23.2533C30.0087 23.2178 30.0336 23.1716 30.062 23.1467C30.0905 23.1218 30.1154 23.0862 30.1154 23.0649C30.1154 23.0436 30.1652 22.9227 30.2256 22.7947C30.3394 22.5493 30.35 22.528 30.4709 22.24C30.5136 22.1404 30.5598 22.0302 30.5776 21.9911C30.6807 21.7422 30.9865 20.8213 31.1323 20.32C31.1643 20.2027 31.214 20.0356 31.2389 19.9502C31.2674 19.8613 31.2887 19.7476 31.2887 19.6942C31.2887 19.6444 31.3136 19.5413 31.342 19.4738C31.3705 19.4027 31.3954 19.2747 31.3954 19.1858C31.3954 19.1004 31.4203 18.9831 31.4487 18.9298C31.4772 18.8693 31.502 18.7342 31.502 18.6098C31.502 18.4924 31.5198 18.3787 31.5412 18.3573C31.5625 18.336 31.5945 18.112 31.6123 17.8596C31.63 17.6107 31.6585 17.3156 31.6763 17.2089C31.7225 16.9529 31.7189 15.3244 31.6763 15.0756C31.6549 14.9689 31.63 14.688 31.6123 14.4533C31.598 14.2187 31.566 13.9911 31.5447 13.9484C31.5198 13.9058 31.502 13.7813 31.502 13.6711C31.502 13.5644 31.4772 13.4151 31.4487 13.344C31.4203 13.2764 31.3954 13.1556 31.3954 13.0773C31.3954 13.0027 31.3705 12.8818 31.342 12.8107C31.3136 12.7431 31.2887 12.6436 31.2887 12.5973C31.2887 12.5476 31.2638 12.4338 31.2389 12.3413C31.2105 12.2524 31.1607 12.0889 31.1323 11.9822C30.9047 11.1787 30.5172 10.0871 30.3465 9.77067C30.318 9.72089 30.2932 9.65333 30.2932 9.62133C30.2932 9.58933 30.2789 9.56444 30.2576 9.56444C30.2398 9.56444 30.222 9.53244 30.222 9.49689C30.222 9.45778 30.2007 9.40444 30.1758 9.37955C30.1474 9.35467 30.1154 9.28711 30.1012 9.23378C30.0905 9.18044 30.062 9.13778 30.0443 9.13778C30.0229 9.13778 30.0087 9.10578 30.0087 9.07022C30.0087 9.03111 29.9838 8.97778 29.9554 8.94578C29.9269 8.91733 29.902 8.87111 29.902 8.84622C29.902 8.81778 29.8843 8.77867 29.8629 8.75733C29.8132 8.70756 29.7385 8.57956 29.6852 8.45156C29.6638 8.39822 29.6318 8.35555 29.614 8.35555C29.5963 8.35555 29.582 8.32355 29.582 8.28444C29.582 8.24533 29.5607 8.20267 29.5323 8.192C29.5038 8.18133 29.4718 8.14578 29.4612 8.11378C29.4505 8.08178 29.4078 8.00356 29.3687 7.94667C29.3296 7.88622 29.2798 7.80444 29.2585 7.75822C29.2336 7.71556 29.2016 7.68 29.1838 7.68C29.1696 7.68 29.1554 7.65867 29.1554 7.63378C29.1554 7.61244 29.0523 7.44533 28.9243 7.27111C28.7998 7.09333 28.6754 6.92267 28.6505 6.88711C28.6043 6.82311 28.5225 6.71289 28.4443 6.624C28.4265 6.59911 28.4087 6.56355 28.4087 6.54578C28.4087 6.52444 28.3874 6.496 28.366 6.48178C28.3412 6.46755 28.2558 6.37156 28.1776 6.27555C28.0994 6.176 28.0247 6.09067 28.0105 6.08711C27.9927 6.08 27.982 6.05867 27.982 6.03733C27.982 6.01955 27.9145 5.93067 27.8327 5.84178C27.5092 5.504 26.5349 4.54044 26.3856 4.416C26.3038 4.34489 26.1509 4.21333 26.0478 4.13156C25.9483 4.04622 25.8238 3.936 25.7705 3.88978C25.7207 3.84356 25.6674 3.80444 25.6567 3.80444C25.646 3.80444 25.5074 3.712 25.3545 3.59822C24.9598 3.31378 24.6683 3.11822 24.3554 2.92267C24.206 2.83022 24.0567 2.73422 24.0176 2.70933C23.9785 2.688 23.9145 2.64889 23.8754 2.63111C23.8363 2.60978 23.758 2.56355 23.6976 2.52444C23.6407 2.48889 23.4629 2.38933 23.3065 2.31111C23.15 2.22933 22.9972 2.15111 22.9687 2.13689C22.7518 2.01955 22.6843 1.99111 22.6345 1.99111C22.6025 1.99111 22.5776 1.97689 22.5776 1.95555C22.5776 1.93778 22.5349 1.90933 22.4816 1.89867C22.4247 1.88444 22.3678 1.86311 22.3465 1.84889C22.3287 1.83467 22.2647 1.81333 22.2043 1.79911C22.1474 1.78489 22.0869 1.75644 22.0763 1.73867C22.0656 1.71733 22.0123 1.69955 21.9589 1.69244C21.9056 1.68889 21.8452 1.664 21.8238 1.64267C21.7989 1.61778 21.7598 1.6 21.7314 1.6C21.7029 1.6 21.6318 1.57867 21.5714 1.55022C21.5074 1.52178 21.4256 1.49333 21.3865 1.48267C21.3474 1.472 21.2052 1.42222 21.0665 1.376C20.238 1.08444 18.9012 0.778666 18.1687 0.707554C18.0016 0.693333 17.7954 0.664888 17.7065 0.643555C17.4505 0.586666 14.6772 0.597332 14.4354 0.657778ZM16.0318 7.968C16.2985 8.05333 16.4514 8.12444 16.6256 8.25244C16.9207 8.46933 17.0843 8.70044 17.1945 9.06311C17.262 9.28711 17.2585 10.0267 17.1909 10.2507C17.0416 10.7413 16.6683 11.1324 16.1598 11.3244C16.0069 11.3813 15.886 11.392 15.3065 11.392H14.6309L14.3643 11.264C14.1794 11.1787 14.0372 11.0791 13.9092 10.944C13.7243 10.7556 13.6887 10.7058 13.5678 10.4711C13.3367 10.0302 13.3545 9.23022 13.6069 8.74667C13.71 8.54755 14.158 8.10667 14.254 8.10667C14.286 8.10667 14.3323 8.08889 14.35 8.07111C14.3714 8.04978 14.4674 8.01067 14.5634 7.98578C14.7874 7.92533 15.854 7.91111 16.0318 7.968ZM10.9225 9.36889C11.374 9.44 11.758 9.63911 12.0247 9.93778C12.2345 10.1724 12.27 10.2222 12.3625 10.4142L12.462 10.6133L12.4727 14.0978C12.4763 16.4978 12.4692 17.6604 12.4407 17.8311C12.3518 18.4107 12.2523 18.8338 12.1918 18.8942C12.174 18.9156 12.1598 18.9618 12.1598 18.9973C12.1598 19.0329 12.1385 19.1076 12.11 19.1573C12.0852 19.2107 12.0034 19.3742 11.9323 19.52C11.7687 19.8507 11.7616 19.8684 11.5127 20.1956C11.086 20.7716 10.382 21.2978 9.74204 21.5289C9.02738 21.7813 8.71093 21.8418 7.8576 21.888C6.5136 21.9627 5.03449 21.5253 4.29138 20.8391C3.54826 20.1493 3.3456 19.4027 3.6976 18.6453C3.7616 18.5102 3.8256 18.3929 3.84338 18.3893C3.86115 18.3822 3.87538 18.3609 3.87538 18.3396C3.87538 18.2862 4.23804 17.8453 4.45493 17.6284C4.80338 17.2907 4.86026 17.2836 5.07004 17.5716C5.31538 17.9058 5.80604 18.2471 6.2576 18.3964C6.34649 18.4249 6.54915 18.4676 6.71271 18.4924C6.96871 18.5316 7.05404 18.5316 7.31715 18.4818C7.78293 18.3929 7.88604 18.3467 8.10649 18.1333C8.38026 17.8667 8.45493 17.6889 8.4976 17.1769C8.51538 16.9493 8.53671 15.3813 8.55093 13.6889C8.57226 10.2293 8.55093 10.4569 8.84604 10.08C9.11982 9.728 9.58915 9.46844 10.1332 9.36889C10.4496 9.30844 10.5669 9.30844 10.9225 9.36889ZM23.9109 12.0462C24.0496 12.064 24.2167 12.096 24.2843 12.1138C24.3518 12.1351 24.5047 12.1813 24.622 12.2133C25.8878 12.5724 27.0683 13.5538 27.6229 14.7022C27.6905 14.8373 27.7652 14.9938 27.79 15.0471C27.8185 15.0969 27.8398 15.1716 27.8398 15.2071C27.8398 15.2427 27.854 15.2889 27.8754 15.3102C27.8932 15.328 27.9252 15.4169 27.9429 15.5022C27.9643 15.5911 27.9963 15.7333 28.0176 15.8222C28.1172 16.2169 28.1314 16.3271 28.1492 16.7467C28.1598 17.024 28.1527 17.2871 28.1243 17.44C28.1029 17.5751 28.0709 17.7707 28.0532 17.8738C28.0389 17.9733 28.0069 18.1084 27.9856 18.176C27.8007 18.7484 27.7296 18.9333 27.5838 19.2178C27.2638 19.84 26.6203 20.5369 25.9234 21.0169C25.6816 21.184 25.0523 21.5111 24.9705 21.5111C24.9456 21.5111 24.8745 21.5324 24.8105 21.5609C24.6718 21.6213 24.3732 21.6996 23.9892 21.7742C23.6123 21.8524 22.574 21.8524 22.1972 21.7742C21.5394 21.6427 21.1554 21.5147 20.6932 21.2658C19.822 20.8036 18.9616 19.9289 18.5563 19.0933C18.3252 18.6169 18.2754 18.496 18.2754 18.4142C18.2754 18.3751 18.2576 18.3076 18.2327 18.2649C18.2114 18.2222 18.1794 18.1049 18.1616 18.0089C18.1474 17.9093 18.1189 17.76 18.1012 17.6711C18.0407 17.4044 18.0549 16.3413 18.1189 16.0356C18.1865 15.7013 18.2683 15.4133 18.3323 15.2604C18.3607 15.1964 18.382 15.1289 18.382 15.1111C18.382 15.0542 18.6203 14.5671 18.7163 14.4249C18.766 14.3502 18.8087 14.2791 18.8087 14.2684C18.8087 14.2578 18.9296 14.0978 19.0789 13.9164C19.7687 13.0631 20.6185 12.48 21.5465 12.2204C21.6532 12.1884 21.8274 12.1387 21.934 12.1102C22.0372 12.0782 22.1972 12.0498 22.2896 12.0498C22.3785 12.0462 22.5029 12.032 22.5598 12.0178C22.6878 11.9822 23.5589 12 23.9109 12.0462ZM15.9998 12.2418C16.5616 12.3698 17.0203 12.8 17.1945 13.3653C17.2336 13.5004 17.2443 14.1084 17.2443 16.9067C17.2443 20.5156 17.2478 20.448 17.0665 20.8C16.9776 20.9742 16.6398 21.344 16.5012 21.4222C16.1172 21.6284 15.8754 21.6676 15.1465 21.6427C14.5172 21.6213 14.3927 21.5858 14.0727 21.344C13.7634 21.1093 13.5358 20.7573 13.4434 20.3627C13.4149 20.2453 13.4043 19.2213 13.4043 16.9244C13.4043 13.3831 13.4007 13.4649 13.5998 13.0667C13.6994 12.864 13.8878 12.6471 14.0976 12.4942C14.4034 12.2667 14.6629 12.2027 15.3065 12.2027C15.5803 12.1991 15.8932 12.2204 15.9998 12.2418Z" fill="#FF0000"/>
<path d="M22.7374 14.9867C22.4849 15.0436 22.2716 15.1182 22.2147 15.1751C22.1898 15.2 22.1507 15.2178 22.1258 15.2178C22.0618 15.2178 21.5925 15.68 21.5462 15.7902C21.5285 15.8364 21.4965 15.9004 21.4787 15.9289C21.2582 16.288 21.1836 16.9813 21.3116 17.4578C21.5036 18.1724 21.916 18.5956 22.6307 18.816C23.1711 18.9796 23.8822 18.816 24.3054 18.4249C24.6609 18.0978 24.8529 17.7138 24.9311 17.1804C24.9667 16.9316 24.9667 16.832 24.9169 16.5547C24.8387 16.0924 24.6894 15.7973 24.3729 15.4844C24.0849 15.1964 23.8111 15.0471 23.4485 14.9831C23.1427 14.9262 23.0111 14.9262 22.7374 14.9867Z" fill="#FF0000"/>
</g>
<defs>
<clipPath id="clip0_24524_257285">
<rect width="32" height="32" fill="white"/>
</clipPath>
</defs>
</svg>
