<svg width="18" height="17" viewBox="0 0 18 17" fill="none" xmlns="http://www.w3.org/2000/svg">
<path opacity="0.2" d="M6.46504 13.0689V8.93891L9.27859 11.4062L7.33758 13.4202C7.26744 13.4929 7.17717 13.5431 7.07834 13.5642C6.9795 13.5853 6.87662 13.5764 6.78287 13.5387C6.68911 13.501 6.60877 13.4361 6.55215 13.3524C6.49552 13.2687 6.46519 13.1699 6.46504 13.0689ZM15.5094 2.42026L2.66037 7.44939C2.5806 7.48009 2.51293 7.53585 2.46754 7.60828C2.42214 7.68071 2.40146 7.76591 2.40861 7.8511C2.41576 7.93628 2.45034 8.01685 2.50717 8.08071C2.564 8.14456 2.64001 8.18826 2.72379 8.20525L6.46504 8.93891L15.5962 2.49318C15.599 2.48173 15.5985 2.46974 15.5948 2.45856C15.5911 2.44738 15.5843 2.43745 15.5753 2.42988C15.5663 2.42231 15.5554 2.4174 15.5437 2.4157C15.5321 2.414 15.5202 2.41558 15.5094 2.42026Z" fill="#3470E4"/>
<path d="M15.9061 2.04598C15.8275 1.97811 15.7318 1.93297 15.6295 1.91543C15.5271 1.89789 15.4219 1.9086 15.3252 1.94642L2.47433 6.97555C2.2922 7.04637 2.13801 7.17444 2.03497 7.34048C1.93192 7.50651 1.88561 7.70153 1.90299 7.89616C1.92037 8.0908 2.00051 8.27452 2.13134 8.41967C2.26218 8.56482 2.43662 8.66354 2.62842 8.70097L5.95813 9.35473V13.0674C5.95748 13.2697 6.01757 13.4674 6.13064 13.6351C6.2437 13.8028 6.40451 13.9326 6.59224 14.0078C6.77968 14.0844 6.98581 14.1027 7.18383 14.0606C7.38185 14.0184 7.5626 13.9176 7.70257 13.7713L9.30814 12.1061L11.8554 14.3357C12.0391 14.4987 12.2762 14.5889 12.5218 14.5893C12.6295 14.5892 12.7364 14.5723 12.8389 14.5392C13.0062 14.4861 13.1568 14.3901 13.2755 14.2607C13.3942 14.1313 13.4769 13.9731 13.5155 13.8017L16.0893 2.60463C16.1123 2.50365 16.1074 2.3983 16.0752 2.29989C16.0429 2.20148 15.9844 2.1137 15.9061 2.04598ZM12.0291 4.32878L6.34811 8.39723L3.20229 7.78024L12.0291 4.32878ZM6.97271 13.0674V10.0567L8.54467 11.4352L6.97271 13.0674ZM12.5231 13.5747L7.28025 8.97744L14.8262 3.56911L12.5231 13.5747Z" fill="#3470E4"/>
</svg>
